<?xml version="1.0" encoding="iso-8859-1"?>
<!-- Generator: Adobe Illustrator 19.0.0, SVG Export Plug-In . SVG Version: 6.00 Build 0)  -->
<svg version="1.1" id="Capa_1" xmlns="http://www.w3.org/2000/svg" xmlns:xlink="http://www.w3.org/1999/xlink" x="0px" y="0px"
	 viewBox="0 0 512 512" style="enable-background:new 0 0 512 512;" xml:space="preserve">
<path style="fill:#039DFA;" d="M512,256c0,109.965-69.339,203.734-166.672,239.982C317.513,506.337,287.42,512,256,512
	c-32.078,0-62.788-5.904-91.084-16.677C68.504,458.606,0,365.307,0,256C0,114.615,114.615,0,256,0S512,114.615,512,256z"/>
<g>
	<path style="fill:#F2F2F2;" d="M52.009,289.169c0,10.816,8.768,19.582,19.582,19.582h368.81c10.816,0,19.582-8.768,19.582-19.582
		H52.009z"/>
	<path style="fill:#F2F2F2;" d="M345.328,495.982C317.513,506.337,287.42,512,256,512c-32.078,0-62.788-5.904-91.084-16.677
		c1.045-0.345,2.152-0.533,3.291-0.533h55.599c11.473,0,20.762-9.3,20.762-20.762v-152.22h19.592v152.221
		c0,11.463,9.289,20.762,20.762,20.762h55.599C342.235,494.79,343.886,495.219,345.328,495.982z"/>
	<path style="fill:#F2F2F2;" d="M436.07,123.226c-0.606-10.667-9.433-19.007-20.117-19.007H116.741V81.63
		c0-8.84,7.192-16.032,16.032-16.032h50.496c2.148,7.48,9.027,12.96,17.198,12.96h40.345c9.889,0,17.905-8.016,17.905-17.905V56.85
		c0-9.889-8.016-17.905-17.905-17.905h-40.345c-8.789,0-16.083,6.336-17.601,14.687h-50.092c-15.439,0-27.999,12.561-27.999,27.999
		v22.59H92.776c-10.684,0-19.511,8.339-20.117,19.007l-8.684,152.887h380.778L436.07,123.226z"/>
</g>
<g>
</g>
<g>
</g>
<g>
</g>
<g>
</g>
<g>
</g>
<g>
</g>
<g>
</g>
<g>
</g>
<g>
</g>
<g>
</g>
<g>
</g>
<g>
</g>
<g>
</g>
<g>
</g>
<g>
</g>
</svg>
